<?xml version="1.0" standalone="no"?>
<!DOCTYPE svg PUBLIC "-//W3C//DTD SVG 20010904//EN"
 "http://www.w3.org/TR/2001/REC-SVG-20010904/DTD/svg10.dtd">
<svg version="1.0" xmlns="http://www.w3.org/2000/svg"
 width="512.000000pt" height="512.000000pt" viewBox="0 0 512.000000 512.000000"
 preserveAspectRatio="xMidYMid meet">
<metadata>
Created by potrace 1.11, written by Peter Selinger 2001-2013
</metadata>
<g transform="translate(0.000000,512.000000) scale(0.100000,-0.100000)"
fill="#000000" stroke="none">
<path d="M4780 4874 c-25 -6 -252 -98 -505 -204 -253 -106 -482 -200 -510
-210 -73 -25 -125 -18 -296 39 -136 45 -257 77 -368 96 -19 3 -37 7 -40 9 -3
2 -35 7 -71 11 -36 3 -72 8 -80 10 -86 22 -576 22 -690 0 -12 -2 -48 -7 -79
-11 -126 -13 -369 -73 -534 -130 -71 -25 -120 -36 -162 -36 -68 -1 -73 1 -530
187 -159 65 -310 126 -335 135 -25 9 -88 35 -140 56 -82 34 -105 39 -170 39
-57 -1 -85 -6 -115 -22 -55 -29 -99 -75 -127 -131 l-23 -47 0 -1185 c0 -652 4
-1216 8 -1254 67 -580 379 -1094 887 -1462 53 -38 104 -74 115 -81 11 -6 56
-34 100 -60 404 -245 924 -385 1430 -386 101 0 336 12 345 18 3 2 32 6 65 10
147 15 399 75 569 135 478 169 860 441 1180 841 81 101 244 398 281 514 9 28
20 59 25 70 16 35 44 144 66 250 41 194 42 238 40 1445 l-1 1165 -23 42 c-27
51 -82 106 -126 127 -52 25 -135 34 -186 20z m-3040 -2403 c67 -19 119 -50
176 -106 133 -129 166 -316 84 -481 -69 -141 -206 -228 -365 -233 -233 -7
-429 182 -428 414 1 127 46 229 136 311 109 99 256 133 397 95z m1883 -5 c171
-52 291 -219 289 -402 -1 -118 -43 -215 -129 -298 -231 -225 -623 -106 -696
211 -40 173 33 349 188 448 98 62 228 78 348 41z"/>
</g>
</svg>
